<svg xmlns="http://www.w3.org/2000/svg" width="39.896" height="39.896" viewBox="0 0 39.896 39.896"><path d="M19.948,0A19.948,19.948,0,1,0,39.9,19.948,19.95,19.95,0,0,0,19.948,0Zm-5.8,30.156H9.293V15.54h4.858ZM11.722,13.544h-.032a2.532,2.532,0,1,1,.064-5.05,2.533,2.533,0,1,1-.032,5.05ZM31.669,30.156H26.812V22.337c0-1.965-.7-3.305-2.461-3.305a2.66,2.66,0,0,0-2.493,1.777,3.327,3.327,0,0,0-.16,1.186v8.162H16.84s.064-13.245,0-14.616H21.7v2.069A4.823,4.823,0,0,1,26.076,15.2c3.2,0,5.593,2.089,5.593,6.578Zm0,0"/></svg>