<svg width="30" height="30" viewBox="0 0 30 30" version="1.1" xmlns="http://www.w3.org/2000/svg" xmlns:xlink="http://www.w3.org/1999/xlink"><title>Group 13</title><desc>Created with Sketch.</desc><defs><circle id="path-1" cx="10" cy="10" r="10"/><mask id="mask-2" maskContentUnits="userSpaceOnUse" maskUnits="objectBoundingBox" x="-5" y="-5" width="30" height="30"><rect x="-5" y="-5" width="30" height="30" fill="#fff"/><use xlink:href="#path-1" fill="#000"/></mask></defs><g id="web" stroke="none" stroke-width="1" fill="none" fill-rule="evenodd"><g id="product-details-v1-copy" transform="translate(-87.000000, -2432.000000)"><g id="Group-13" transform="translate(92.000000, 2437.000000)"><g id="Oval-2" transform="translate(10.000000, 10.000000) rotate(90.000000) translate(-10.000000, -10.000000)"><use fill="#4A90E2" fill-rule="evenodd" xlink:href="#path-1"/><use stroke="#FFF" mask="url(#mask-2)" stroke-width="10" xlink:href="#path-1"/></g><path d="M6.16140595,7.47649268 C5.77088166,7.08596839 5.13771668,7.08596839 4.74719238,7.47649268 C4.35666809,7.86701697 4.35666809,8.50018195 4.74719238,8.89070624 L9.22320944,13.3667233 C9.61373373,13.7572476 10.2468987,13.7572476 10.637423,13.3667233 L15.6744156,8.32973069 C16.0649399,7.9392064 16.0649399,7.30604142 15.6744156,6.91551713 C15.2838913,6.52499284 14.6507263,6.52499284 14.260202,6.91551713 L9.93031622,11.2454029 L6.16140595,7.47649268 Z" id="Path-4" fill="#FFF"/></g></g></g></svg>