<?xml version="1.0" encoding="utf-8"?>
<!-- Generator: Adobe Illustrator 25.2.0, SVG Export Plug-In . SVG Version: 6.00 Build 0)  -->
<svg version="1.1" id="Layer_1" xmlns="http://www.w3.org/2000/svg" xmlns:xlink="http://www.w3.org/1999/xlink" x="0px" y="0px"
	 viewBox="0 0 392.5 134.7" style="enable-background:new 0 0 392.5 134.7;" xml:space="preserve">
<style type="text/css">
	.st0{fill-rule:evenodd;clip-rule:evenodd;fill:#00963F;}
	.st1{fill-rule:evenodd;clip-rule:evenodd;fill:#5773B7;}
	.st2{fill-rule:evenodd;clip-rule:evenodd;fill:#A7D3AE;stroke:#FFFFFF;stroke-width:0.5;stroke-miterlimit:2.6131;}
	.st3{fill-rule:evenodd;clip-rule:evenodd;fill:#A7D3AE;}
	.st4{fill-rule:evenodd;clip-rule:evenodd;fill:#5773B7;stroke:#5773B7;stroke-width:0.216;stroke-miterlimit:2.6131;}
	.st5{fill-rule:evenodd;clip-rule:evenodd;}
	.st6{fill-rule:evenodd;clip-rule:evenodd;fill:#5068AF;}
	.st7{fill-rule:evenodd;clip-rule:evenodd;fill:#000004;}
	.st8{fill-rule:evenodd;clip-rule:evenodd;fill:#FFFFFF;}
	.st9{fill-rule:evenodd;clip-rule:evenodd;fill:#000002;}
	.st10{fill-rule:evenodd;clip-rule:evenodd;fill:none;stroke:#5068AF;stroke-width:0.5;stroke-miterlimit:2.6131;}
	.st11{fill-rule:evenodd;clip-rule:evenodd;fill:#A7D3AE;stroke:#FFFFFF;stroke-width:0.216;stroke-miterlimit:2.6131;}
	.st12{fill-rule:evenodd;clip-rule:evenodd;fill:#030003;}
	.st13{fill-rule:evenodd;clip-rule:evenodd;fill:#000005;}
	.st14{fill:#00963F;}
	.st15{fill:#5773B7;}
</style>
<path class="st0" d="M200.3,44.3h-17.9l-2.6,11.6h13.3c2.6,0,4.6,2,4.6,4.4v4.6c0,2.5-2,4.4-4.6,4.4h-9.6c-4.9,0-9,4.1-9,9V97
	c0,5.1,4.1,9,9,9h14.2h11.6V53.3C209.4,48.4,205.3,44.3,200.3,44.3L200.3,44.3z M190.6,94.4c-2.5,0-4.4-2-4.4-4.4v-4.6
	c0-2.5,2-4.4,4.4-4.4h7.2v13.5H190.6L190.6,94.4z M251.5,44.3H240l-5.8,15.4l-5.8-15.4h-11.6l11.6,30.9l-11.6,30.9h11.6l5.8-15.4
	l5.8,15.4h11.5L240,75.2L251.5,44.3L251.5,44.3z"/>
<path class="st1" d="M334.8,72V53.2c0-4.9-4-8.9-9-8.9h-16.8c-4.9,0-9,4-9,8.9V97c0,4.9,4.1,9,9,9h25.8l-2.6-11.6h-16.1
	c-2.6,0-4.6-2-4.6-4.4v-9h14.2C330.8,81,334.8,76.9,334.8,72L334.8,72z M323.1,60.3v4.6c0,2.5-2,4.4-4.4,4.4h-7.2v-9
	c0-2.5,2-4.4,4.6-4.4h2.6C321.2,55.9,323.1,57.9,323.1,60.3L323.1,60.3z M375.8,72V53.2c0-4.9-4-8.9-9-8.9H350c-4.9,0-9,4-9,8.9V97
	c0,4.9,4.1,9,9,9h25.8l-2.6-11.6h-16.1c-2.6,0-4.6-2-4.6-4.4v-9h14.2C371.8,81,375.8,76.9,375.8,72L375.8,72z M364.2,60.3v4.6
	c0,2.5-2,4.4-4.4,4.4h-7.2v-9c0-2.5,2-4.4,4.6-4.4h2.6C362.2,55.9,364.2,57.9,364.2,60.3z"/>
<path class="st2" d="M38,78.4c1.2-2.8,0.3-2.5,0.8-4.8c1.4-6.3,1.5-7.1,3.2,0.3c2,0.4,1.5,0.7,4.2,1.4c2.2,1.5,2.2,2,4.2,4.9
	l2.9,0.5c1.9-1.5,0-1.3,2.7-2.5l0.3-1.8l-1.9-1.2c-7.6-3.2-8.7-3.9-11.2-7c-2.9-1.3-14.8-2-19.3-1.9c0.5,2.2,0.6,2.2,2,3.5
	c2,1.9,1.9,2.7,6,5.6C33.4,76.2,36,78.1,38,78.4z"/>
<path class="st3" d="M101.6,57.5c0,0.8-0.1,2.2-0.2,2.9c-0.3,1.5-0.2,1.2-1,2c0.3,3.2-2.5,7.2-4.8,9.3c-4.3,3.9-7.4,2.7-10.1,4.5
	l1,1.4c1,0.5,0.8,0.3,1.5,1l1.5,1.7l2.1-0.2c0.2-0.3,0.4-0.6,0.6-0.9c0.6-2.1,2.1-3.8,4-4.6c0.7-1.2,2.6-0.7,4.2-0.9
	c0.6-2.9,1.2-3,1.9-5.2c1.7,0.3-0.3,1.6,0.6,2.3c3.4-0.2,9.7-3,13.2-2.5c-0.7,2-2.6,3.5-4.7,4.9c-2.3,1.7-3.1,4.4-6.9,3.5l0,0.1
	c0.9,1.2,1.4,2.7,1.4,4.3c0,2.8-1.6,5.2-3.9,6.4c6-0.7,10.4-2.1,15-4.8c4.2-2.5,14.9-11,5-13.6l-2.1-0.7c0.7-2.4,13.7-14.8,6.1-20.2
	C121.1,46,107.4,54.3,101.6,57.5z"/>
<path class="st4" d="M83,34.4c-3,0.5-21.9,0.4-24.1-0.2l-1.4,0.3c-12.7,1.2-17,8.9-17.3,22c0.1,2.6,0.2,5.9,1.7,7.4
	c-0.4-2.2-1.1-4.2-0.9-6.8c0.1,0.1,0.3,0.1,0.3,0.4l1,1.5c2.2,4.7,2.9,7.9,9.4,11.1c5.3,2.7,15.1,2.1,22,2.1c6.5,0,13.7,0,19-3.6
	c5.1-3.5,6.6-9.5,8.1-15.2c0.6,3.2-0.1,6-0.4,9c0.8-0.8,0.7-0.5,1-2c0.1-0.7,0.2-2.1,0.2-2.9c0.2-10.8-2.8-19.8-13.3-22.3
	C86.5,34.8,84.8,34.2,83,34.4z"/>
<path class="st5" d="M56.4,39c-13.5,3-8.8,24.4-6,27.9c3.5,4.2,9.9,3.4,16.1,3.4c16,0.1,25.9,3.3,27.6-11.5
	c0.7-5.8,0.1-12.9-2.8-16.5c-3.2-4-9.4-3.5-15.7-3.5C70.8,38.8,60.5,38.1,56.4,39z"/>
<path class="st3" d="M37.4,84.7l0-0.2c-0.4-0.9-0.7-2-0.7-3.1c0-1.2,0.3-2.3,0.8-3.3c-1.9-0.4-4-1.9-5.4-2.9c-3.1-2.1-4-3.6-6-5.6
	c-1.4-1.4-1.6-1.3-2-3.5c4.5-0.1,16.4,0.6,19.3,1.9c-0.7-2-1.3-1.9-1.3-4.1c-1.5-1.5-1.6-4.8-1.7-7.4C34.4,53.1,29.7,50,22.6,48
	c-1.3-0.4-2.4-0.7-3.7-0.6c-5.8,0.4-3.7,7.1-2,11c1.3,3.1,3.2,5.2,4.4,7.2c-6.9,5.4-3.9,7.7,3.1,13.2C27.3,81.2,33.3,84.3,37.4,84.7
	z"/>
<path class="st6" d="M56,78.1l1.9,5.8c0.7,3.3,1.8,4.5,2.8,7.1l1,0.8c5-6,14.5-5.7,19,0.6c0.6-1.3-0.1-0.6,1.5-1.4
	c0.6-1.9,1.8-3.9,2.5-6.1c0.7-2.3,1.3-4.6,1.7-7.2l-0.8-1.4c2.7-1.8,5.6-0.8,9.9-4.6c5.6-4.6,6.3-12.2,5.3-18.3
	c-1.5,5.7-3,11.7-8.1,15.2c-5.4,3.6-12.5,3.6-19,3.6c-6.9,0-16.6,0.6-22-2.1c-6.5-3.2-7.1-6.4-9.4-11.1l-1-1.5
	c-0.1-0.2-0.2-0.3-0.3-0.4c-1.2,16.3,8.1,14.6,15.3,19.1L56,78.1z"/>
<path class="st7" d="M57.5,34.5l1.4-0.3c-0.4-7.6-5.1-8.9-6.1-10.8C46.3,10,39.1,33,52.1,26.2C54.9,28,56.7,30.3,57.5,34.5z"/>
<path class="st7" d="M83,34.4c2.1-0.2,1.5,0.9,1.8-0.6c0.8-4.3,2.8-5.7,5.1-7.7c11.1,4.9,8.6-9.1,1.9-6.4c-2.1,1.3-1.1,2.7-3.6,5
	C85.3,27.5,83.9,28.3,83,34.4z"/>
<path class="st8" d="M52.8,52.4C53,63.6,63.8,63,62.5,50.9C61,43.5,53.5,44.5,52.8,52.4z"/>
<path class="st8" d="M79.2,51.5c-0.9,13,11.5,11,9.5-0.1C87.5,44.2,80.4,44.2,79.2,51.5z"/>
<path class="st9" d="M50.4,80.1l0,0.2c0.1,0.4,0.1,0.7,0.1,1.1c0,0.5-0.1,1-0.2,1.5l0,0.1l3-0.1c1.6,1.5-0.1,0.9,2.9,3
	c0.1,0.1,0.2,0.1,0.3,0.2l0.9,0.7c-0.9,1.9-1.2,1.1-4,3c0.6,0.5,1.1,1.2,1.4,1.9l3.1-2.1l2.8,1.3c-1-2.6-2.1-3.8-2.8-7.1L56,78.1
	c-2.7,1.2-0.8,1-2.7,2.5L50.4,80.1z"/>
<path class="st9" d="M82.3,91l2-1.1l3.1,2l1.5-1.8c-1.3-0.8-2.7-1.3-3.8-2.6c0.9-2.6,1.8-0.1,3.8-4.4l3.1-0.1
	c-0.1-0.5-0.2-1.1-0.2-1.7c0-0.4,0-0.8,0.1-1.2l-2.5,0.4l-1.5-1.7c-0.8-0.8-0.5-0.5-1.5-1c-0.4,2.6-0.9,4.9-1.7,7.2
	C84,87.1,82.8,89,82.3,91z"/>
<path class="st3" d="M48.7,86.1l0.7,3.1c1.9,0.1,2-0.2,3.4,0.7l0.5,0c3-2,3.2-1.1,4.2-3.1l-0.9-0.7c-0.1-0.1-0.2-0.1-0.3-0.2
	c-3-2.1-1.4-1.5-2.9-3l-3,0.1l0,0.1C50,84.3,49.4,85.3,48.7,86.1z"/>
<path class="st3" d="M88.9,90l0.5,0l3.4-0.8l0.8-3.2c-0.1-0.1-0.2-0.3-0.2-0.3l-0.8-1.3c-0.3-0.5-0.3-0.8-0.5-1.4L88.9,83
	c-2,4.3-2.9,1.8-3.8,4.4C86.2,88.6,87.6,89.1,88.9,90z"/>
<path class="st5" d="M57.6,55c4.6-0.1,4.3-8-0.6-7.1C53.9,49,54.3,54.6,57.6,55z"/>
<path class="st5" d="M83.9,55c4.6-0.1,4.3-8-0.6-7.1C80.3,49,80.7,54.6,83.9,55z"/>
<path class="st10" d="M57.4,40.1c-12.6,2.8-8.2,22.7-5.5,25.9c3.2,3.9,9.2,3.2,14.9,3.2c14.9,0.1,24.1,3.1,25.7-10.7
	c0.6-5.4,0.1-12-2.6-15.4c-3-3.7-8.7-3.2-14.6-3.2C70.8,39.9,61.2,39.3,57.4,40.1z"/>
<path class="st8" d="M77.1,61.1c-6.5,4.9-10.9-0.3-10.9-0.3S70.8,57,77.1,61.1z"/>
<path class="st8" d="M48.1,25.6c3-0.1,2.9-5.3-0.4-4.7C45.7,21.6,46,25.3,48.1,25.6z"/>
<path class="st8" d="M93.5,25.6c3-0.1,2.9-5.3-0.4-4.7C91.1,21.6,91.4,25.3,93.5,25.6z"/>
<path class="st11" d="M104.3,78.2c-1.7-2.9-2.7-3.9-8.2-2.9c-2.7,1.5-3.5,3.8-4.5,4.9l-2.9,0.5c-1.9-1.5,0-1.3-2.7-2.5l-0.3-1.8
	l1.9-1.2c7.6-3.2,8.7-3.9,11.2-7c2.9-1.3,14.8-2,19.3-1.9c-0.5,2.2-0.6,2.2-2,3.5c-2,1.9-1.9,2.7-6,5.6
	C108.5,76.3,106.2,77.9,104.3,78.2z"/>
<path class="st1" d="M50.6,98.5c2.5,0,4.6-2.2,4.6-4.8s-2.1-4.8-4.6-4.8C48,88.8,46,91,46,93.6S48,98.5,50.6,98.5z"/>
<ellipse class="st1" cx="92" cy="92.8" rx="4.6" ry="4.8"/>
<path class="st12" d="M95.3,86.4c-0.2,2.5,0.1,1.9,0.8,3.6c-0.6,2.7-0.8,5.3-4.1,5.2c-3.5-0.1-5.3-6.8,0.8-7l0.8-3.3
	C95.3,84.1,95.5,84,95.3,86.4z"/>
<path class="st12" d="M47,87.4c0.2,2.5-0.1,1.9-0.8,3.6c0.6,2.7,0.8,5.3,4.1,5.2c3.5-0.1,5.3-6.8-0.8-7l-0.8-3.3
	C47,85.2,46.8,85,47,87.4z"/>
<path class="st1" d="M60.7,93.2c4.7-7.8,16-7.6,20.6,0c-1.2,6.8-6.6,11-11.9,10.2C65.3,102.7,61.7,98.4,60.7,93.2z"/>
<path class="st12" d="M63.2,99.6c3.8-4.9,12.9-4.8,16.6,0c-1,4.2-5.3,6.9-9.5,6.4C66.8,105.6,63.9,102.9,63.2,99.6z"/>
<path class="st12" d="M63.2,92.4c3.8,4.9,12.9,4.8,16.6,0c-1-4.2-5.3-6.9-9.5-6.4C66.8,86.4,63.9,89.1,63.2,92.4z"/>
<path class="st1" d="M98.7,88.4c3.8,0,6.9-3.2,6.9-7.1c0-3.9-3.1-7.1-6.9-7.1c-3.8,0-6.9,3.2-6.9,7.1C91.8,85.2,94.9,88.4,98.7,88.4
	z"/>
<path class="st13" d="M95.6,75c-0.2,2.7-2.2,6.8,2.6,7.9c2,0.5,3.5,0.1,4.8-1.7c0.5-0.7,1.5-2.4,1.4-3.2c0-3.8-2-16.8-4.4-4.3
	C98.2,73.8,96.2,73.2,95.6,75z"/>
<path class="st1" d="M43.6,88.5c3.8,0,6.9-3.2,6.9-7.1c0-3.9-3.1-7.1-6.9-7.1c-3.8,0-6.9,3.2-6.9,7.1C36.6,85.3,39.7,88.5,43.6,88.5
	z"/>
<path class="st13" d="M46.7,75c0.2,2.7,2.2,6.8-2.6,7.9c-2,0.5-3.5,0.1-4.8-1.7c-0.5-0.7-1.5-2.4-1.4-3.2c0-3.8,2-16.8,4.4-4.3
	C44.1,73.8,46.2,73.2,46.7,75z"/>
<g>
	<path class="st14" d="M177.1,29h-13.6v77h-13.5V29h-13.5l1.4-13.5h40.9L177.1,29z"/>
</g>
<g>
	<path class="st15" d="M289.4,61.4c3.1,2.8,4.8,6.8,4.8,11.1c0,8,0,20,0,20c0,7.5-5.4,13.5-12.2,13.5h-12.3h-12.2V15.5h12.2h12.3
		c6.7,0,12.2,6,12.2,13.5c0,0,0,12.1,0,20c0,4.3-1.8,8.4-4.8,11.1l-0.7,0.7L289.4,61.4z M282.1,31.7c0-1.4-1.1-2.6-2.4-2.6h-9.9v25
		h8.3c2.2,0,4-2,4-4.5V31.7z M282.1,72c0-2.5-1.8-4.5-4-4.5h-8.3v25h9.9c1.3,0,2.4-1.2,2.4-2.6V72z"/>
</g>
</svg>
